<?xml version="1.0" standalone="no"?><!DOCTYPE svg PUBLIC "-//W3C//DTD SVG 1.1//EN" "http://www.w3.org/Graphics/SVG/1.1/DTD/svg11.dtd"><svg t="1624863032386" class="icon" viewBox="0 0 1210 1024" version="1.1" xmlns="http://www.w3.org/2000/svg" p-id="6668" xmlns:xlink="http://www.w3.org/1999/xlink" width="37.8125" height="32"><defs><style type="text/css"></style></defs><path d="M1020.759505 952.785455a35.560727 35.560727 0 0 1 0 71.214545H195.555142a35.607273 35.607273 0 0 1 0-71.214545z m71.028364-128.325819c12.706909 0 24.436364 6.795636 30.813091 17.826909a35.653818 35.653818 0 0 1 12.148364 69.073455 35.514182 35.514182 0 0 1-42.961455-15.685818h-99.514182a35.560727 35.560727 0 0 1 0-71.214546z m-213.178182 0a35.560727 35.560727 0 1 1-0.232727 71.214546H103.115869a35.560727 35.560727 0 0 1 0-71.214546zM395.886778 173.102545a62.370909 62.370909 0 0 1 108.264727 0l27.834182 35.374546 57.344 73.169454 177.245091 225.559273 99.328-126.231273a40.494545 40.494545 0 0 1 70.050909 0l107.426909 136.843637 55.668364 70.842182 87.086545 110.778181a40.587636 40.587636 0 0 1-35.141818 60.83491H62.76096c-48.221091 0-78.289455-52.270545-54.225455-94.11491zM868.835142 0C1057.111505 0 1210.246051 153.506909 1210.246051 342.202182a340.107636 340.107636 0 0 1-64 199.168l-55.668364-70.842182c21.783273-37.701818 34.257455-81.640727 34.257455-128.279273 0-141.637818-114.920727-256.651636-256-256.651636a255.720727 255.720727 0 0 0-232.308364 148.759273l-57.344-73.122909A341.178182 341.178182 0 0 1 868.835142 0z" p-id="6669" fill="#1296db"></path></svg>